<svg width="57" height="56" viewBox="0 0 57 56" fill="none" xmlns="http://www.w3.org/2000/svg">
<g clip-path="url(#clip0_71_913)">
<path d="M45.1936 24.6306C44.5199 24.0443 43.8286 23.4318 43.6536 22.9156C43.4698 22.3556 43.6798 21.4193 43.8811 20.518C44.1961 19.118 44.5111 17.6742 43.7148 16.5804C42.9098 15.4779 41.431 15.3379 39.996 15.2067C39.086 15.1192 38.141 15.0316 37.6685 14.6904C37.2134 14.3579 36.8372 13.4916 36.4784 12.6603C35.9272 11.3916 35.3147 9.94779 33.9934 9.51903C32.7246 9.10778 31.4646 9.85154 30.2483 10.5778C29.4433 11.0591 28.6033 11.5491 27.9908 11.5491C27.3782 11.5491 26.5382 11.0591 25.7332 10.5778C24.5169 9.86029 23.2482 9.10778 21.9881 9.51903C20.6756 9.94779 20.0543 11.3828 19.5031 12.6603C19.1443 13.4916 18.7768 14.3579 18.3131 14.6904C17.8493 15.0316 16.9043 15.1192 15.9855 15.2067C14.5505 15.3379 13.0629 15.4779 12.2667 16.5804C11.4704 17.6742 11.7942 19.118 12.1004 20.518C12.3017 21.4193 12.5117 22.3556 12.3279 22.9156C12.1617 23.4318 11.4617 24.0443 10.7879 24.6306C9.73788 25.5494 8.54785 26.5906 8.54785 27.9994C8.54785 29.4082 9.73788 30.4495 10.7879 31.3682C11.4617 31.9545 12.1529 32.567 12.3279 33.092C12.5117 33.652 12.3017 34.5883 12.1004 35.4896C11.7854 36.8896 11.4704 38.3334 12.2667 39.4272C13.0717 40.5297 14.5505 40.6697 15.9855 40.8009C16.8955 40.8884 17.8405 40.9759 18.3131 41.3172C18.7681 41.6497 19.1443 42.516 19.5031 43.3472C20.0543 44.616 20.6669 46.0598 21.9881 46.4886C23.2482 46.8998 24.5169 46.1561 25.7332 45.4298C26.5382 44.9485 27.3782 44.4585 27.9908 44.4585C28.6033 44.4585 29.4433 44.9485 30.2483 45.4298C31.2283 46.0073 32.2346 46.6023 33.2496 46.6023C33.5034 46.6023 33.7484 46.5673 34.0021 46.4886C35.3147 46.0598 35.9359 44.6248 36.4872 43.3472C36.8459 42.516 37.2135 41.6497 37.6772 41.3172C38.141 40.9759 39.086 40.8884 40.0048 40.8009C41.4398 40.6697 42.9273 40.5297 43.7236 39.4272C44.5199 38.3334 44.1961 36.8896 43.8898 35.4896C43.6886 34.5883 43.4786 33.652 43.6623 33.092C43.8286 32.5758 44.5286 31.9633 45.2024 31.377C46.2524 30.4582 47.4424 29.417 47.4424 28.0082C47.4337 26.5906 46.2436 25.5494 45.1936 24.6306ZM44.0736 30.0907C43.2248 30.8345 42.3498 31.5957 42.0436 32.5583C41.7198 33.5645 41.9735 34.7283 42.2273 35.8483C42.4461 36.8284 42.6911 37.9396 42.3498 38.4209C41.9998 38.9021 40.8535 39.0159 39.8385 39.1034C38.701 39.2084 37.5197 39.3222 36.6709 39.9347C35.8397 40.5384 35.3759 41.6235 34.9209 42.6647C34.5184 43.601 34.0546 44.6685 33.4771 44.861C32.9434 45.036 31.9721 44.4673 31.1146 43.9598C30.1083 43.3647 29.067 42.7522 27.9908 42.7522C26.9145 42.7522 25.8732 43.3647 24.8669 43.9598C24.0094 44.4673 23.0382 45.036 22.5044 44.861C21.9181 44.6685 21.4631 43.6097 21.0606 42.6647C20.6144 41.6235 20.1506 40.5384 19.3106 39.9347C18.4706 39.3222 17.2893 39.2084 16.143 39.1034C15.1367 39.0072 13.9905 38.9022 13.6317 38.4121C13.2905 37.9396 13.5355 36.8284 13.7542 35.8396C14.008 34.7108 14.2617 33.547 13.938 32.5495C13.623 31.587 12.7479 30.817 11.9079 30.082C11.0942 29.3645 10.2454 28.6294 10.2454 27.9907C10.2454 27.3519 11.0854 26.6169 11.9079 25.8994C12.7567 25.1556 13.6317 24.3943 13.938 23.4318C14.2617 22.4256 14.008 21.2618 13.7542 20.1418C13.5355 19.1617 13.2905 18.0505 13.6317 17.5692C13.9817 17.0879 15.128 16.9742 16.143 16.8867C17.2805 16.7817 18.4618 16.6679 19.3106 16.0554C20.1418 15.4517 20.6056 14.3666 21.0606 13.3254C21.4631 12.3891 21.9269 11.3216 22.5044 11.1291C23.0469 10.9541 24.0094 11.5228 24.8669 12.0303C25.8732 12.6253 26.9145 13.2379 27.9908 13.2379C29.067 13.2379 30.1083 12.6253 31.1146 12.0303C31.9721 11.5228 32.9434 10.9541 33.4771 11.1291C34.0634 11.3216 34.5184 12.3803 34.9209 13.3254C35.3672 14.3666 35.8309 15.4517 36.6709 16.0554C37.511 16.6679 38.6922 16.7817 39.8385 16.8867C40.8448 16.9829 41.9911 17.0879 42.3498 17.5692C42.6911 18.0417 42.4461 19.153 42.2273 20.1418C41.9735 21.2705 41.7198 22.4343 42.0436 23.4318C42.3586 24.3943 43.2336 25.1644 44.0736 25.8994C44.8874 26.6169 45.7361 27.3519 45.7361 27.9907C45.7361 28.6382 44.8961 29.3732 44.0736 30.0907Z" fill="#2E2E2E"/>
<path d="M27.9993 16.0817C21.4279 16.0817 16.0815 21.428 16.0815 27.9994C16.0815 34.5708 21.4279 39.9172 27.9993 39.9172C34.5707 39.9172 39.917 34.5708 39.917 27.9994C39.917 21.428 34.5707 16.0817 27.9993 16.0817ZM27.9993 38.2196C22.3642 38.2196 17.7791 33.6345 17.7791 27.9994C17.7791 22.3643 22.3642 17.7792 27.9993 17.7792C33.6344 17.7792 38.2195 22.3643 38.2195 27.9994C38.2195 33.6345 33.6344 38.2196 27.9993 38.2196Z" fill="#2E2E2E"/>
<path d="M27.9993 38.2196C22.3642 38.2196 17.7791 33.6345 17.7791 27.9994C17.7791 22.3643 22.3642 17.7792 27.9993 17.7792C33.6344 17.7792 38.2195 22.3643 38.2195 27.9994C38.2195 33.6345 33.6344 38.2196 27.9993 38.2196Z" fill="#95D4FC"/>
<path d="M32.9867 23.3179L25.4178 30.8868L23.0115 28.4805C22.679 28.148 22.1452 28.148 21.8127 28.4805C21.4802 28.813 21.4802 29.3468 21.8127 29.6793L24.8141 32.6806C24.9803 32.8468 25.1991 32.9256 25.4178 32.9256C25.6366 32.9256 25.8553 32.8468 26.0216 32.6806L34.1855 24.5167C34.518 24.1842 34.518 23.6504 34.1855 23.3179C33.853 22.9854 33.3192 22.9854 32.9867 23.3179ZM27.9991 4.95126C28.4716 4.95126 28.8479 4.575 28.8479 4.10249V0.847425C28.8479 0.622318 28.7585 0.40643 28.5993 0.247256C28.4401 0.0880807 28.2242 -0.00134277 27.9991 -0.00134277C27.774 -0.00134277 27.5581 0.0880807 27.3989 0.247256C27.2398 0.40643 27.1504 0.622318 27.1504 0.847425V4.10249C27.1504 4.56625 27.5266 4.95126 27.9991 4.95126ZM15.3114 7.72507C15.4249 7.91772 15.6098 8.05789 15.826 8.1152C16.0422 8.17252 16.2723 8.14239 16.4664 8.03133C16.8689 7.79507 17.0089 7.27881 16.7814 6.8763L15.1539 4.05874C14.9176 3.65623 14.4013 3.51623 13.9988 3.75249C13.5963 3.98874 13.4563 4.505 13.6838 4.90751L15.3114 7.72507ZM4.05862 15.1627L6.87618 16.7903C7.00743 16.869 7.15618 16.904 7.29619 16.904C7.59369 16.904 7.8737 16.7553 8.0312 16.484C8.08747 16.3878 8.12398 16.2813 8.13859 16.1707C8.1532 16.0602 8.14561 15.9479 8.11628 15.8403C8.08695 15.7328 8.03645 15.6321 7.96776 15.5443C7.89906 15.4565 7.81354 15.3833 7.7162 15.329L4.89864 13.7014C4.80351 13.6442 4.69794 13.6065 4.58809 13.5905C4.47824 13.5745 4.36629 13.5805 4.25879 13.6082C4.15129 13.6359 4.05037 13.6847 3.96192 13.7518C3.87347 13.8189 3.79926 13.9029 3.74361 13.9989C3.51611 14.4102 3.65611 14.9265 4.05862 15.1627ZM4.95114 27.9992C4.95114 27.5267 4.57488 27.1505 4.10237 27.1505H0.847303C0.622196 27.1505 0.406308 27.2399 0.247133 27.3991C0.0879587 27.5582 -0.00146484 27.7741 -0.00146484 27.9992C-0.00146484 28.2243 0.0879587 28.4402 0.247133 28.5994C0.406308 28.7586 0.622196 28.848 0.847303 28.848H4.10237C4.56613 28.848 4.95114 28.4718 4.95114 27.9992ZM6.87618 39.217L4.05862 40.8445C3.95942 40.8985 3.87205 40.9719 3.80168 41.0603C3.73132 41.1486 3.67937 41.2502 3.64892 41.359C3.61847 41.4677 3.61013 41.5815 3.6244 41.6936C3.63867 41.8056 3.67525 41.9137 3.73198 42.0114C3.78872 42.1091 3.86445 42.1944 3.95472 42.2623C4.04498 42.3302 4.14795 42.3793 4.25752 42.4068C4.36709 42.4342 4.48106 42.4394 4.59268 42.4221C4.7043 42.4047 4.81131 42.3652 4.90739 42.3058L7.72495 40.6783C8.12745 40.442 8.26746 39.9257 8.03995 39.5232C7.9255 39.3291 7.73902 39.188 7.52108 39.1306C7.30314 39.0733 7.07136 39.1043 6.87618 39.217ZM16.4751 47.9672C16.3789 47.9109 16.2724 47.8744 16.1619 47.8598C16.0513 47.8452 15.939 47.8527 15.8315 47.8821C15.7239 47.9114 15.6233 47.9619 15.5355 48.0306C15.4477 48.0993 15.3745 48.1848 15.3201 48.2822L13.6926 51.0997C13.6363 51.196 13.5998 51.3025 13.5852 51.413C13.5706 51.5235 13.5782 51.6358 13.6075 51.7434C13.6368 51.851 13.6873 51.9516 13.756 52.0394C13.8247 52.1272 13.9102 52.2004 14.0076 52.2547C14.1388 52.3335 14.2876 52.3685 14.4276 52.3685C14.7251 52.3685 15.0051 52.2197 15.1626 51.9485L16.7901 49.1309C17.0176 48.7197 16.8864 48.1947 16.4751 47.9672ZM27.9991 51.0472C27.5266 51.0472 27.1504 51.4235 27.1504 51.896V55.1511C27.1504 55.6236 27.5266 55.9998 27.9991 55.9998C28.4716 55.9998 28.8479 55.6236 28.8479 55.1511V51.896C28.8479 51.6709 28.7585 51.455 28.5993 51.2958C28.4401 51.1366 28.2242 51.0472 27.9991 51.0472ZM40.6869 48.2734C40.5738 48.0803 40.3895 47.9392 40.1736 47.8803C39.9577 47.8214 39.7273 47.8495 39.5319 47.9584C39.1294 48.1947 38.9893 48.7109 39.2169 49.1134L40.8444 51.931C40.958 52.1236 41.1429 52.2638 41.3591 52.3211C41.5752 52.3784 41.8053 52.3483 41.9994 52.2372C42.4019 52.001 42.5419 51.4847 42.3144 51.0822L40.6869 48.2734ZM51.9396 40.8358L49.1221 39.2082C49.0258 39.152 48.9193 39.1154 48.8088 39.1008C48.6983 39.0862 48.5859 39.0938 48.4784 39.1231C48.3708 39.1525 48.2702 39.203 48.1824 39.2717C48.0946 39.3404 48.0214 39.4259 47.967 39.5232C47.9108 39.6195 47.8743 39.726 47.8596 39.8365C47.845 39.947 47.8526 40.0593 47.882 40.1669C47.9113 40.2745 47.9618 40.3751 48.0305 40.4629C48.0992 40.5507 48.1847 40.6239 48.282 40.6783L51.0996 42.3058C51.2309 42.3845 51.3796 42.4195 51.5196 42.4195C51.8171 42.4195 52.0971 42.2708 52.2546 41.9995C52.4821 41.5883 52.3421 41.072 51.9396 40.8358ZM55.1509 27.1505H51.8959C51.4234 27.1505 51.0471 27.5267 51.0471 27.9992C51.0471 28.4718 51.4234 28.848 51.8959 28.848H55.1509C55.6234 28.848 55.9997 28.4718 55.9997 27.9992C55.9997 27.5267 55.6234 27.1505 55.1509 27.1505ZM48.6933 16.8953C48.8333 16.8953 48.9821 16.8603 49.1133 16.7815L51.9309 15.154C52.3334 14.9177 52.4734 14.4015 52.2459 13.9989C52.1328 13.8058 51.9485 13.6647 51.7326 13.6058C51.5167 13.547 51.2863 13.575 51.0909 13.6839L48.2733 15.3115C47.8708 15.5477 47.7308 16.064 47.9583 16.4665C48.1158 16.7378 48.4045 16.8953 48.6933 16.8953ZM39.5231 8.03133C39.6544 8.11008 39.8031 8.14508 39.9431 8.14508C40.2406 8.14508 40.5206 7.99632 40.6781 7.72507L42.3057 4.90751C42.3619 4.81127 42.3984 4.70477 42.4131 4.59425C42.4277 4.48372 42.4201 4.3714 42.3907 4.26384C42.3614 4.15628 42.3109 4.05566 42.2422 3.96785C42.1735 3.88005 42.088 3.80683 41.9907 3.75249C41.8944 3.69621 41.7879 3.65971 41.6774 3.6451C41.5669 3.63049 41.4545 3.63807 41.347 3.66741C41.2394 3.69674 41.1388 3.74723 41.051 3.81593C40.9632 3.88463 40.89 3.97015 40.8356 4.06749L39.2081 6.88505C39.1531 6.98089 39.1176 7.08668 39.1037 7.1963C39.0897 7.30593 39.0976 7.41722 39.1269 7.52378C39.1562 7.63034 39.2063 7.73004 39.2743 7.81715C39.3423 7.90426 39.4268 7.97705 39.5231 8.03133Z" fill="#2E2E2E"/>
</g>
<defs>
<clipPath id="clip0_71_913">
<rect width="56" height="56" fill="white"/>
</clipPath>
</defs>
</svg>
