<svg width="57" height="56" viewBox="0 0 57 56" fill="none" xmlns="http://www.w3.org/2000/svg">
<g clip-path="url(#clip0_71_907)">
<path d="M42.0643 6.96783V8.88342C42.0361 10.1846 43.9586 10.1846 43.9339 8.88342V6.96783C43.9339 5.65221 42.0643 5.70281 42.0643 6.96783ZM37.5279 8.72439L38.4556 10.387C39.0729 11.5255 40.7309 10.5388 40.0748 9.42557L39.1435 7.76298C38.5544 6.71483 36.8859 7.58226 37.5279 8.72439ZM46.8618 7.7666L45.9235 9.42919C45.2673 10.5388 46.9288 11.5255 47.5461 10.387L48.4739 8.72439C49.0912 7.62202 47.4685 6.68953 46.8618 7.7666ZM3.80088 9.83399C3.05918 9.83779 2.34892 10.1414 1.82446 10.6787C1.29999 11.2161 1.00371 11.9438 1 12.7038V43.3063C1 43.834 1.41978 44.2604 1.9348 44.2604H6.67232C7.1309 47.4953 9.8577 50 13.1348 50C16.4154 50 19.1317 47.4953 19.5902 44.2604H35.5348C36.7977 44.2785 36.7977 42.3304 35.5348 42.3485H19.5902C19.4213 41.1248 18.9241 39.9732 18.1541 39.022C17.3841 38.0708 16.3715 37.3572 15.229 36.9608C14.0866 36.5644 12.8592 36.5006 11.6835 36.7767C10.5078 37.0528 9.43003 37.6579 8.57014 38.5245H2.86961V12.7038C2.86961 12.158 3.27175 11.746 3.80441 11.746H33.6687C34.1979 11.746 34.6 12.158 34.6 12.7038V35.6547C34.5824 36.9487 36.4837 36.9487 36.4696 35.6547V17.4855H47.6661C48.2023 17.4855 48.4809 18.1722 48.6397 18.7144L51.4441 28.2815C51.4864 28.4333 51.5676 28.5707 51.6769 28.6791L55.1339 32.2247V38.5245H49.4299C48.2132 37.2986 46.5751 36.6115 44.8687 36.6115C43.1623 36.6115 41.5242 37.2986 40.3076 38.5245H21.5339C20.2711 38.5064 20.2711 40.4546 21.5339 40.4365H38.9742C38.553 41.3304 38.3335 42.31 38.3322 43.3027C38.3322 46.9893 41.2741 50 44.8722 50C48.1529 50 50.8691 47.4953 51.3277 44.2604H56.0687C56.3154 44.2595 56.5518 44.1587 56.7262 43.9799C56.9007 43.8012 56.9991 43.559 57 43.3063V31.8308C57.0002 31.5776 56.9026 31.3345 56.7284 31.1549L53.1585 27.4972L50.4317 18.165C49.9731 16.6109 49.0771 15.5735 47.6661 15.5735H45.8V14.6121C45.7963 13.8531 45.5004 13.1263 44.9766 12.5896C44.4528 12.053 43.7434 11.7498 43.0026 11.746C42.2609 11.7488 41.5503 12.0515 41.0252 12.5882C40.5001 13.1248 40.2029 13.8522 40.1982 14.6121V15.5735H36.4661V12.7038C36.4624 11.9444 36.1666 11.2173 35.6429 10.68C35.1192 10.1427 34.4098 9.83874 33.6687 9.83399H3.80088ZM43.0026 13.6616C43.5353 13.6616 43.9304 14.0664 43.9304 14.6121V15.5735H42.0643V14.6121C42.0643 14.0664 42.47 13.6616 43.0026 13.6616ZM16.8705 18.4397C16.7471 18.4392 16.6249 18.4638 16.5109 18.5119C16.3968 18.5601 16.2932 18.6309 16.2059 18.7202C16.1187 18.8096 16.0496 18.9158 16.0026 19.0326C15.9556 19.1495 15.9317 19.2747 15.9322 19.4011V22.2637H13.1348C13.0117 22.2637 12.8899 22.2886 12.7763 22.3369C12.6626 22.3853 12.5594 22.4561 12.4725 22.5455C12.3857 22.6348 12.3169 22.7408 12.2701 22.8574C12.2234 22.974 12.1995 23.099 12.2 23.2251V27.0454C12.2 27.5767 12.6163 28.0068 13.1348 28.0032H15.9322V30.873C15.9322 31.4043 16.3519 31.8344 16.8705 31.8308H20.5956C20.7186 31.8313 20.8406 31.8068 20.9544 31.7589C21.0682 31.711 21.1717 31.6405 21.2589 31.5515C21.3461 31.4625 21.4152 31.3568 21.4624 31.2404C21.5096 31.1239 21.5339 30.9991 21.5339 30.873V28.0032H24.3313C24.4543 28.0037 24.5763 27.9793 24.6901 27.9313C24.8039 27.8834 24.9074 27.8129 24.9946 27.724C25.0817 27.635 25.1509 27.5292 25.1981 27.4128C25.2453 27.2963 25.2696 27.1715 25.2696 27.0454V23.2251C25.2701 23.0987 25.2461 22.9734 25.1991 22.8566C25.1521 22.7397 25.083 22.6336 24.9958 22.5442C24.9086 22.4548 24.805 22.384 24.6909 22.3359C24.5769 22.2877 24.4546 22.2632 24.3313 22.2637H21.5339V19.4011C21.5344 19.2747 21.5104 19.1495 21.4634 19.0326C21.4165 18.9158 21.3474 18.8096 21.2601 18.7202C21.1729 18.6309 21.0693 18.5601 20.9552 18.5119C20.8412 18.4638 20.7189 18.4392 20.5956 18.4397H16.8705ZM39.2705 19.3939C39.1474 19.3934 39.0255 19.4178 38.9117 19.4658C38.7978 19.5137 38.6944 19.5841 38.6072 19.6731C38.52 19.7621 38.4508 19.8679 38.4036 19.9843C38.3564 20.1008 38.3322 20.2256 38.3322 20.3517V28.0032C38.3322 28.5309 38.7555 28.9574 39.2705 28.9574H48.4316C49.0559 28.9574 49.5039 28.343 49.3276 27.7285L47.0911 20.077C47.0338 19.8782 46.9152 19.7038 46.753 19.58C46.5908 19.4562 46.3938 19.3896 46.1916 19.3903L39.2705 19.3939ZM17.8018 20.3517H19.6678V23.2251C19.6678 23.7528 20.0841 24.1756 20.5956 24.1793H23.4035V26.0948H20.5956C20.3501 26.0967 20.1152 26.1975 19.9416 26.3753C19.768 26.5532 19.6697 26.7939 19.6678 27.0454V29.9188H17.7982V27.0454C17.7973 26.7933 17.6994 26.5517 17.5257 26.373C17.352 26.1944 17.1166 26.0931 16.8705 26.0912H14.0661V24.1793H16.8705C17.1172 24.1783 17.3535 24.0775 17.528 23.8987C17.7024 23.72 17.8008 23.4778 17.8018 23.2251V20.3517ZM40.2018 21.3059H45.4931L47.1793 27.0418H40.1947L40.2018 21.3059ZM39.2705 30.873C37.997 30.8441 37.997 32.8139 39.2705 32.785H41.1366C42.3536 32.756 42.3536 30.8983 41.1366 30.8694L39.2705 30.873ZM13.1348 38.5245C15.724 38.5245 17.8018 40.6497 17.8018 43.3027C17.8018 45.9556 15.724 48.088 13.1348 48.088C10.5491 48.088 8.46431 45.9556 8.46431 43.3027C8.46431 40.6497 10.5456 38.5245 13.1348 38.5245ZM44.8722 38.5245C47.4579 38.5245 49.5357 40.6497 49.5357 43.3027C49.5357 45.9556 47.4579 48.088 44.8722 48.088C42.283 48.088 40.1982 45.9556 40.1982 43.3027C40.1982 40.6497 42.2795 38.5245 44.8722 38.5245ZM2.86608 40.4365H7.24025C6.95717 41.0418 6.76567 41.6877 6.67232 42.3521H2.86608V40.4365ZM13.1348 40.4365C12.3931 40.4393 11.6825 40.742 11.1573 41.2787C10.6322 41.8154 10.335 42.5427 10.3304 43.3027C10.335 44.0633 10.632 44.7914 11.1569 45.3292C11.6818 45.8671 12.3925 46.1713 13.1348 46.176C14.6728 46.176 15.9322 44.8749 15.9322 43.3027C15.9294 42.5434 15.6338 41.816 15.1098 41.2791C14.5857 40.7422 13.8758 40.4394 13.1348 40.4365ZM44.8722 40.4365C44.1299 40.4384 43.4184 40.7406 42.8925 41.2774C42.3666 41.8142 42.069 42.5421 42.0643 43.3027C42.069 44.0639 42.3664 44.7925 42.8921 45.3305C43.4178 45.8684 44.1293 46.1722 44.8722 46.176C46.4067 46.176 47.6661 44.8749 47.6661 43.3027C47.6633 42.544 47.3682 41.8172 46.8449 41.2804C46.3217 40.7436 45.6127 40.4403 44.8722 40.4365ZM50.7633 40.4365H55.1339V42.3521H51.3277C51.2353 41.6879 51.045 41.042 50.7633 40.4365ZM13.1348 42.3521C13.6639 42.3521 14.0661 42.7605 14.0661 43.3027C14.0661 43.8412 13.6639 44.2641 13.1348 44.2641C13.0115 44.265 12.8892 44.2408 12.7751 44.1928C12.6611 44.1448 12.5575 44.0739 12.4704 43.9844C12.3834 43.8949 12.3146 43.7885 12.2682 43.6714C12.2218 43.5544 12.1986 43.429 12.2 43.3027C12.1981 43.1765 12.221 43.0512 12.2673 42.9343C12.3137 42.8175 12.3825 42.7113 12.4697 42.6223C12.557 42.5332 12.6608 42.4631 12.7751 42.4161C12.8893 42.369 13.0117 42.3496 13.1348 42.3521ZM44.8722 42.3521C45.3979 42.3521 45.8 42.7605 45.8 43.3027C45.8 43.8448 45.3979 44.2641 44.8722 44.2641C44.7483 44.266 44.6253 44.2425 44.5104 44.1949C44.3955 44.1473 44.2911 44.0766 44.2033 43.987C44.1155 43.8974 44.0461 43.7907 43.9992 43.6731C43.9524 43.5556 43.929 43.4296 43.9304 43.3027C43.9304 42.7605 44.3431 42.3521 44.8722 42.3521Z" fill="#2E2E2E"/>
<path d="M17.8018 20.3517H19.6678V23.2251C19.6678 23.7528 20.0841 24.1756 20.5956 24.1793H23.4035V26.0948H20.5956C20.3501 26.0967 20.1152 26.1975 19.9416 26.3753C19.768 26.5532 19.6697 26.7939 19.6678 27.0454V29.9188H17.7982V27.0454C17.7973 26.7933 17.6994 26.5517 17.5257 26.373C17.352 26.1944 17.1166 26.0931 16.8705 26.0912H14.0661V24.1793H16.8705C17.1172 24.1783 17.3535 24.0775 17.528 23.8987C17.7024 23.72 17.8008 23.4778 17.8018 23.2251V20.3517Z" fill="#95D4FC"/>
</g>
<defs>
<clipPath id="clip0_71_907">
<rect width="56" height="44" fill="white" transform="translate(1 6)"/>
</clipPath>
</defs>
</svg>
