<svg width="56" height="56" viewBox="0 0 56 56" fill="none" xmlns="http://www.w3.org/2000/svg">
<g clip-path="url(#clip0_71_893)">
<path d="M55.3556 26.6078C52.7011 25.1155 49.9372 23.8248 47.0874 22.7468V15.3338C47.0854 13.6546 46.4144 12.0447 45.2215 10.8573C44.0286 9.66996 42.4113 9.00201 40.7243 9H15.272C13.585 9.00201 11.9677 9.66996 10.7749 10.8573C9.58198 12.0447 8.91094 13.6546 8.90892 15.3338V22.7493C6.06097 23.8263 3.29876 25.1157 0.645813 26.6066C0.384256 26.7539 0.183525 26.9886 0.0791744 27.2692C-0.0251767 27.5497 -0.0264144 27.858 0.0756802 28.1393L6.5953 46.1627C6.70381 46.4591 6.91916 46.7048 7.1995 46.8521C7.47984 46.9993 7.80516 47.0376 8.11226 46.9595C21.162 43.6468 34.8382 43.6468 47.8879 46.9595C47.9927 46.9863 48.1004 46.9999 48.2086 47C48.4703 46.9998 48.7256 46.9193 48.9396 46.7695C49.1537 46.6196 49.3162 46.4077 49.4049 46.1627L55.9245 28.1381C56.0263 27.857 56.0251 27.5492 55.921 27.2689C55.8169 26.9887 55.6167 26.7553 55.3556 26.6078ZM11.4542 15.3338C11.4552 14.3262 11.8577 13.3601 12.5735 12.6477C13.2893 11.9352 14.2598 11.5345 15.272 11.5335H40.7243C41.7366 11.5345 42.7071 11.9352 43.4229 12.6477C44.1386 13.3601 44.5412 14.3262 44.5422 15.3338V21.8373C33.8035 18.2726 22.1926 18.273 11.4542 21.8385V15.3338ZM47.4018 44.2258C34.6486 41.181 21.3528 41.181 8.59967 44.2258L2.83726 28.2926C10.5108 23.9645 19.1802 21.6896 28.0001 21.6896C36.82 21.6896 45.4893 23.9645 53.1629 28.2926L47.4018 44.2258Z" fill="#2E2E2E"/>
<path d="M47.4018 44.2258C34.6486 41.181 21.3528 41.181 8.59967 44.2258L2.83726 28.2926C10.5108 23.9645 19.1802 21.6896 28.0001 21.6896C36.82 21.6896 45.4893 23.9645 53.1629 28.2926L47.4018 44.2258Z" fill="#95D4FC"/>
<path d="M26.7254 28.0012V30.5347H24.1802C23.8427 30.5347 23.519 30.6682 23.2803 30.9058C23.0417 31.1433 22.9076 31.4655 22.9076 31.8015C22.9076 32.1375 23.0417 32.4597 23.2803 32.6972C23.519 32.9348 23.8427 33.0682 24.1802 33.0682H26.7254V35.6017C26.7254 35.9377 26.8595 36.2599 27.0982 36.4975C27.3368 36.735 27.6605 36.8685 27.9981 36.8685C28.3356 36.8685 28.6593 36.735 28.8979 36.4975C29.1366 36.2599 29.2707 35.9377 29.2707 35.6017V33.0682H31.8159C32.1534 33.0682 32.4771 32.9348 32.7158 32.6972C32.9545 32.4597 33.0885 32.1375 33.0885 31.8015C33.0885 31.4655 32.9545 31.1433 32.7158 30.9058C32.4771 30.6682 32.1534 30.5347 31.8159 30.5347H29.2707V28.0012C29.2707 27.6653 29.1366 27.3431 28.8979 27.1055C28.6593 26.868 28.3356 26.7345 27.9981 26.7345C27.6605 26.7345 27.3368 26.868 27.0982 27.1055C26.8595 27.3431 26.7254 27.6653 26.7254 28.0012ZM40.6937 13.7921C40.6201 13.4643 40.4189 13.179 40.1344 12.9985C39.8498 12.8181 39.505 12.7573 39.1755 12.8294C31.815 14.4696 24.1812 14.4696 16.8207 12.8294C16.6575 12.7933 16.4887 12.7895 16.3241 12.8183C16.1594 12.8471 16.0021 12.908 15.8611 12.9973C15.72 13.0866 15.598 13.2028 15.5021 13.339C15.4061 13.4753 15.3381 13.629 15.3018 13.7915C15.2655 13.9539 15.2618 14.1219 15.2907 14.2858C15.3197 14.4497 15.3808 14.6063 15.4705 14.7467C15.5603 14.887 15.6769 15.0085 15.8138 15.104C15.9507 15.1995 16.1052 15.2672 16.2684 15.3033C20.119 16.1596 24.0525 16.5929 27.9981 16.5954C31.9437 16.5929 35.8771 16.1596 39.7278 15.3033C39.891 15.2673 40.0455 15.1997 40.1824 15.1043C40.3194 15.0089 40.4361 14.8875 40.5259 14.7472C40.6157 14.6068 40.6769 14.4502 40.7059 14.2864C40.7349 14.1225 40.7299 13.9545 40.6937 13.7921Z" fill="#2E2E2E"/>
</g>
<defs>
<clipPath id="clip0_71_893">
<rect width="56" height="38" fill="white" transform="translate(0 9)"/>
</clipPath>
</defs>
</svg>
