<svg width="57" height="56" viewBox="0 0 57 56" fill="none" xmlns="http://www.w3.org/2000/svg">
<path d="M47.0586 9.39869C46.9373 9.41735 34.5333 10.472 28.6346 4.91869C28.2706 4.58269 27.7106 4.58269 27.3559 4.91869C21.4573 10.472 9.06261 9.41735 8.93194 9.39869C8.67061 9.37069 8.40927 9.46402 8.21327 9.64135C8.01727 9.81869 7.90527 10.0707 7.90527 10.332V18.984C7.90527 47.8894 27.6453 51.296 27.8413 51.324C27.9066 51.3334 27.9533 51.3334 27.9999 51.3334C28.0466 51.3334 28.0933 51.3334 28.1399 51.324C28.3359 51.296 48.0759 47.8894 48.0759 18.984V10.332C48.0756 10.2018 48.0481 10.073 47.995 9.95409C47.942 9.83515 47.8646 9.72861 47.7679 9.64135C47.6741 9.55223 47.5622 9.48441 47.4398 9.44253C47.3174 9.40065 47.1873 9.3857 47.0586 9.39869ZM46.2093 18.984C46.2093 45.2294 29.8666 49.1027 27.9999 49.4574C26.3013 49.112 9.78127 45.0427 9.78127 18.984V11.3307C12.9079 11.4707 22.3533 11.4894 27.9999 6.85069C33.6373 11.4987 43.0919 11.48 46.2093 11.3307V18.984Z" fill="#2E2E2E"/>
<path d="M37.0438 24.7054H31.2945V18.956C31.2945 18.4427 30.8745 18.0227 30.3611 18.0227H25.6385C25.1251 18.0227 24.7051 18.4427 24.7051 18.956V24.7054H18.9558C18.4425 24.7054 18.0225 25.1254 18.0225 25.6387V30.3614C18.0225 30.8747 18.4425 31.2947 18.9558 31.2947H24.7051V37.044C24.7051 37.5574 25.1251 37.9774 25.6385 37.9774H30.3611C30.8745 37.9774 31.2945 37.5574 31.2945 37.044V31.2947H37.0438C37.5571 31.2947 37.9771 30.8747 37.9771 30.3614V25.6387C37.9771 25.116 37.5571 24.7054 37.0438 24.7054ZM36.1105 29.428H30.3611C29.8478 29.428 29.4278 29.848 29.4278 30.3614V36.1107H26.5718V30.3614C26.5718 29.848 26.1518 29.428 25.6385 29.428H19.8891V26.572H25.6385C26.1518 26.572 26.5718 26.152 26.5718 25.6387V19.8894H29.4278V25.6387C29.4278 26.152 29.8478 26.572 30.3611 26.572H36.1105V29.428Z" fill="#2E2E2E"/>
<path d="M36.1105 29.428H30.3611C29.8478 29.428 29.4278 29.848 29.4278 30.3614V36.1107H26.5718V30.3614C26.5718 29.848 26.1518 29.428 25.6385 29.428H19.8891V26.572H25.6385C26.1518 26.572 26.5718 26.152 26.5718 25.6387V19.8894H29.4278V25.6387C29.4278 26.152 29.8478 26.572 30.3611 26.572H36.1105V29.428Z" fill="#95D4FC"/>
</svg>
