<svg width="57" height="56" viewBox="0 0 57 56" fill="none" xmlns="http://www.w3.org/2000/svg">
<g clip-path="url(#clip0_71_900)">
<path d="M56 27.0699C55.7348 27.0699 55.4804 27.1755 55.2929 27.3636C55.1054 27.5516 55 27.8066 55 28.0725C53.573 62.6528 4.423 62.6458 3 28.0725C3.00794 21.1615 5.74977 14.5358 10.624 9.64891C15.4982 4.76207 22.1068 2.01314 29 2.00518C29.2652 2.00518 29.5196 1.89955 29.7071 1.71153C29.8946 1.5235 30 1.26849 30 1.00259C30 0.736686 29.8946 0.481674 29.7071 0.293652C29.5196 0.10563 29.2652 0 29 0C21.5765 0.00822655 14.4593 2.9685 9.21007 8.23133C3.96083 13.4942 1.00821 20.6297 1 28.0725C2.538 65.3137 55.468 65.3047 57 28.0725C57 27.8066 56.8946 27.5516 56.7071 27.3636C56.5196 27.1755 56.2652 27.0699 56 27.0699Z" fill="#2E2E2E"/>
<path d="M30 7.2066V3.82186C30 3.55596 29.8947 3.30095 29.7071 3.11293C29.5196 2.9249 29.2652 2.81927 29 2.81927C28.7348 2.81927 28.4804 2.9249 28.2929 3.11293C28.1054 3.30095 28 3.55596 28 3.82186V7.2066C28 7.47251 28.1054 7.72752 28.2929 7.91554C28.4804 8.10356 28.7348 8.20919 29 8.20919C29.2652 8.20919 29.5196 8.10356 29.7071 7.91554C29.8947 7.72752 30 7.47251 30 7.2066ZM18.076 10.1031C18.2508 10.1011 18.422 10.0535 18.5728 9.96504C18.7236 9.87654 18.8489 9.75018 18.9362 9.5984C19.0235 9.44662 19.0698 9.27465 19.0707 9.09944C19.0715 8.92423 19.0268 8.75183 18.941 8.5992L18.291 7.47129C18.1575 7.24289 17.9392 7.07673 17.6839 7.00906C17.4286 6.94139 17.157 6.9777 16.9283 7.11008C16.6996 7.24246 16.5325 7.46015 16.4633 7.71566C16.3941 7.97116 16.4285 8.24372 16.559 8.47388C16.904 8.98821 17.292 10.1773 18.076 10.1031ZM10.577 16.251L9.45201 15.5993C9.2222 15.4663 8.94913 15.4303 8.69286 15.4993C8.43659 15.5682 8.21812 15.7363 8.08551 15.9667C7.9529 16.1971 7.91702 16.4709 7.98575 16.7278C8.05448 16.9848 8.2222 17.2038 8.45201 17.3368C8.79001 17.4912 9.68901 18.1689 10.076 18.1218C10.2938 18.1173 10.5043 18.0421 10.6758 17.9074C10.8473 17.7727 10.9705 17.5859 11.027 17.3749C11.0835 17.164 11.0702 16.9404 10.989 16.7377C10.9079 16.535 10.7633 16.3642 10.577 16.251ZM9.18801 28.0725C9.18801 27.8066 9.08265 27.5516 8.89512 27.3636C8.70758 27.1755 8.45323 27.0699 8.18801 27.0699H4.81201C4.5468 27.0699 4.29244 27.1755 4.10491 27.3636C3.91737 27.5516 3.81201 27.8066 3.81201 28.0725C3.81201 28.3384 3.91737 28.5934 4.10491 28.7814C4.29244 28.9695 4.5468 29.0751 4.81201 29.0751H8.18701C8.45223 29.0751 8.70658 28.9695 8.89412 28.7814C9.08166 28.5934 9.18801 28.3384 9.18801 28.0725ZM8.95301 40.68C9.33701 40.7302 10.246 40.0484 10.578 39.894C10.8077 39.7609 10.9752 39.5418 11.0438 39.2849C11.1123 39.028 11.0763 38.7543 10.9435 38.524C10.8108 38.2937 10.5922 38.1257 10.336 38.057C10.0797 37.9883 9.80669 38.0244 9.57701 38.1575L8.45201 38.8092C8.26574 38.9225 8.12116 39.0933 8.04002 39.296C7.95887 39.4986 7.94554 39.7223 8.00203 39.9332C8.05852 40.1441 8.18177 40.331 8.35326 40.4657C8.52475 40.6003 8.73522 40.6756 8.95301 40.68ZM17.209 46.5432L16.559 47.6711C16.4264 47.9015 16.3905 48.1753 16.4592 48.4322C16.528 48.6892 16.6957 48.9082 16.9255 49.0411C17.1553 49.1741 17.4284 49.2101 17.6847 49.1412C17.9409 49.0723 18.1594 48.9041 18.292 48.6737L18.941 47.5458C19.0715 47.3156 19.1059 47.0431 19.0368 46.7876C18.9676 46.5321 18.8004 46.3144 18.5717 46.182C18.343 46.0496 18.0714 46.0133 17.8161 46.081C17.5608 46.1486 17.3426 46.3148 17.209 46.5432ZM28 48.9394V52.3221C28 52.588 28.1054 52.843 28.2929 53.0311C28.4804 53.2191 28.7348 53.3247 29 53.3247C29.2652 53.3247 29.5196 53.2191 29.7071 53.0311C29.8947 52.843 30 52.588 30 52.3221V48.9394C30 48.6735 29.8947 48.4185 29.7071 48.2304C29.5196 48.0424 29.2652 47.9368 29 47.9368C28.7348 47.9368 28.4804 48.0424 28.2929 48.2304C28.1054 48.4185 28 48.6735 28 48.9394ZM39.425 46.1762C39.1953 46.3092 39.0278 46.5282 38.9591 46.785C38.8905 47.0419 38.9264 47.3155 39.059 47.5458L39.709 48.6737C39.7742 48.7886 39.8614 48.8895 39.9656 48.9705C40.0699 49.0515 40.189 49.1111 40.3163 49.1457C40.4436 49.1804 40.5764 49.1894 40.7072 49.1724C40.838 49.1553 40.9641 49.1125 41.0783 49.0464C41.1925 48.9803 41.2926 48.8922 41.3727 48.7872C41.4528 48.6821 41.5114 48.5623 41.5451 48.4344C41.5788 48.3066 41.587 48.1733 41.5691 48.0423C41.5512 47.9113 41.5077 47.7852 41.441 47.6711L40.791 46.5432C40.7255 46.429 40.6382 46.3288 40.5341 46.2486C40.4299 46.1683 40.3109 46.1094 40.184 46.0753C40.0571 46.0412 39.9247 46.0326 39.7945 46.0499C39.6642 46.0672 39.5387 46.1101 39.425 46.1762ZM48.423 38.1575C48.1935 38.0267 47.9216 37.9922 47.6667 38.0615C47.4119 38.1309 47.1948 38.2985 47.0627 38.5278C46.9307 38.7571 46.8945 39.0294 46.962 39.2854C47.0295 39.5413 47.1952 39.7601 47.423 39.894C47.76 40.0494 48.659 40.7282 49.047 40.68C49.2648 40.6756 49.4753 40.6003 49.6468 40.4657C49.8183 40.331 49.9415 40.1441 49.998 39.9332C50.0545 39.7223 50.0412 39.4986 49.96 39.296C49.8789 39.0933 49.7343 38.9225 49.548 38.8092L48.423 38.1575ZM54.188 28.0725C54.188 27.8066 54.0827 27.5516 53.8951 27.3636C53.7076 27.1755 53.4532 27.0699 53.188 27.0699H49.812C49.5468 27.0699 49.2924 27.1755 49.1049 27.3636C48.9174 27.5516 48.812 27.8066 48.812 28.0725C48.812 28.3384 48.9174 28.5934 49.1049 28.7814C49.2924 28.9695 49.5468 29.0751 49.812 29.0751H53.188C53.4532 29.0751 53.7076 28.9695 53.8951 28.7814C54.0827 28.5934 54.188 28.3384 54.188 28.0725ZM15.923 18.215C15.7263 18.0895 15.4921 18.0366 15.2607 18.0653C15.0292 18.094 14.815 18.2026 14.6547 18.3724C14.4945 18.5423 14.3981 18.7627 14.3823 18.996C14.3665 19.2292 14.4321 19.4607 14.568 19.6507L28.068 37.6973C28.1586 37.8166 28.2745 37.9141 28.4074 37.9827C28.5402 38.0514 28.6867 38.0896 28.8361 38.0943C28.9855 38.0992 29.1341 38.0705 29.2711 38.0105C29.4081 37.9505 29.53 37.8606 29.628 37.7475L56.628 6.16592C56.7846 5.97395 56.8648 5.73072 56.8532 5.48303C56.8416 5.23534 56.7391 5.00069 56.5653 4.82423C56.3916 4.64778 56.1588 4.54199 55.912 4.52723C55.6651 4.51246 55.4215 4.58976 55.228 4.74425L28.802 26.8233L15.923 18.215ZM29.508 28.8425L47.354 13.934L28.92 35.4927L19.67 23.1297L28.313 28.9066C28.4926 29.0263 28.7058 29.0846 28.9211 29.0731C29.1364 29.0615 29.3422 28.9806 29.508 28.8425Z" fill="#2E2E2E"/>
<path d="M29.508 28.8425L47.354 13.934L28.92 35.4927L19.67 23.1297L28.313 28.9066C28.4926 29.0263 28.7058 29.0846 28.9211 29.0731C29.1364 29.0615 29.3422 28.9806 29.508 28.8425Z" fill="#95D4FC"/>
</g>
<defs>
<clipPath id="clip0_71_900">
<rect width="56" height="56" fill="white" transform="translate(1)"/>
</clipPath>
</defs>
</svg>
