<svg width="20" height="20" viewBox="0 0 20 20" fill="none" xmlns="http://www.w3.org/2000/svg">
<g clip-path="url(#clip0_81_1389)">
<path d="M9.99104 19.9998C7.85793 20.0006 5.7806 19.3181 4.06326 18.0523C2.34592 16.7864 1.0788 15.0037 0.447462 12.9652C-0.183877 10.9267 -0.146265 8.73955 0.55479 6.72399C1.25584 4.70843 2.58351 2.97038 4.34336 1.76437C5.4252 1.01852 6.64349 0.493522 7.92845 0.219441C9.21341 -0.0546409 10.5398 -0.0724185 11.8316 0.167126C13.1235 0.406671 14.3554 0.898831 15.4568 1.61542C16.5582 2.33201 17.5075 3.25895 18.2504 4.34314C18.9932 5.42734 19.5149 6.6475 19.7857 7.93373C20.0564 9.21997 20.0709 10.547 19.8283 11.8389C19.5857 13.1307 19.0907 14.362 18.3717 15.4621C17.6527 16.5623 16.7239 17.5097 15.6383 18.2502C13.977 19.3934 12.0073 20.0036 9.99104 19.9998ZM9.99104 1.18638C8.10505 1.18814 6.26943 1.79547 4.75425 2.91902C3.23908 4.04256 2.12435 5.62299 1.5741 7.42776C1.02385 9.23253 1.06712 11.1664 1.69755 12.9447C2.32799 14.723 3.51229 16.2519 5.07621 17.3065C6.64012 18.3611 8.50107 18.8856 10.3852 18.803C12.2694 18.7203 14.0773 18.0347 15.5429 16.8472C17.0086 15.6597 18.0545 14.0329 18.5269 12.2062C18.9993 10.3794 18.8731 8.44926 18.1671 6.69962C17.5122 5.06764 16.3829 3.66979 14.9253 2.6869C13.4677 1.70401 11.7488 1.1813 9.99104 1.18638Z" fill="white"/>
<path d="M9.99111 20C8.64516 20 7.42178 18.8967 6.54582 16.894C5.737 15.0448 5.29199 12.5981 5.29199 10.0076C5.29199 7.41719 5.737 4.96968 6.54582 3.12126C7.42178 1.11818 8.64516 0.0149078 9.99111 0.0149078C11.3371 0.0149078 12.56 1.11818 13.436 3.12126C14.2448 4.97007 14.6898 7.41719 14.6898 10.0076C14.6898 12.5981 14.2448 15.0456 13.436 16.894C12.56 18.8967 11.3367 20 9.99111 20ZM9.99111 1.18653C9.15145 1.18653 8.28681 2.0629 7.61852 3.59069C6.87333 5.295 6.46306 7.57419 6.46306 10.0076C6.46306 12.4411 6.87333 14.7199 7.61852 16.4242C8.28681 17.952 9.15145 18.8284 9.99111 18.8284C10.8308 18.8284 11.695 17.952 12.3633 16.4242C13.1085 14.7199 13.5188 12.4407 13.5188 10.0076C13.5188 7.57458 13.1085 5.295 12.3633 3.59069C11.695 2.0629 10.8304 1.18653 9.99111 1.18653Z" fill="white"/>
<path d="M18.7097 7.06571H1.27206C1.11676 7.06571 0.967832 7.00399 0.858023 6.89413C0.748214 6.78427 0.686523 6.63526 0.686523 6.4799C0.686523 6.32453 0.748214 6.17553 0.858023 6.06567C0.967832 5.95581 1.11676 5.89409 1.27206 5.89409H18.7097C18.865 5.89409 19.0139 5.95581 19.1237 6.06567C19.2335 6.17553 19.2952 6.32453 19.2952 6.4799C19.2952 6.63526 19.2335 6.78427 19.1237 6.89413C19.0139 7.00399 18.865 7.06571 18.7097 7.06571ZM18.7097 14.1208H1.27206C1.11676 14.1208 0.967832 14.0591 0.858023 13.9492C0.748214 13.8394 0.686523 13.6904 0.686523 13.535C0.686523 13.3796 0.748214 13.2306 0.858023 13.1208C0.967832 13.0109 1.11676 12.9492 1.27206 12.9492H18.7097C18.865 12.9492 19.0139 13.0109 19.1237 13.1208C19.2335 13.2306 19.2952 13.3796 19.2952 13.535C19.2952 13.6904 19.2335 13.8394 19.1237 13.9492C19.0139 14.0591 18.865 14.1208 18.7097 14.1208Z" fill="white"/>
</g>
<defs>
<clipPath id="clip0_81_1389">
<rect width="20" height="20" fill="white"/>
</clipPath>
</defs>
</svg>
