<svg width="24" height="24" viewBox="0 0 24 24" fill="none" xmlns="http://www.w3.org/2000/svg">
<g clip-path="url(#clip0_59_374)">
<path d="M3.91362 1.10742C3.10133 1.10742 2.36285 1.40282 1.80901 1.95667C1.21825 2.54742 0.922852 3.28585 0.922852 4.06124C0.922852 4.87353 1.25516 5.61201 1.80901 6.16585C2.36285 6.7197 3.13824 7.05201 3.87671 7.0151H3.95057C4.68905 7.0151 5.39057 6.7197 5.94442 6.16585C6.49827 5.61201 6.83057 4.87353 6.83057 4.06124C6.86748 3.28585 6.53517 2.54738 5.98133 1.99353C5.42748 1.40278 4.68901 1.10742 3.91362 1.10742ZM5.42748 5.64896C5.02131 6.05513 4.46747 6.31358 3.87671 6.27667C3.32287 6.27667 2.73211 6.05513 2.32594 5.64896C1.88287 5.24279 1.66133 4.65204 1.66133 4.06128C1.66133 3.47053 1.88287 2.91668 2.32594 2.4736C2.73211 2.06744 3.28596 1.8459 3.91362 1.8459C4.46747 1.8459 5.02131 2.06744 5.42748 2.4736C5.87056 2.91668 6.0921 3.47053 6.0921 4.06128C6.0921 4.65204 5.87056 5.24279 5.42748 5.64896ZM5.35362 7.75358H2.36285C1.7721 7.75358 1.29207 8.23356 1.29207 8.86127V21.7844C1.29207 22.3751 1.80901 22.8921 2.39976 22.8921H5.35362C5.94438 22.8921 6.46131 22.3751 6.46131 21.8213V8.86127C6.46131 8.27047 5.94438 7.75358 5.35362 7.75358ZM5.72284 21.8213C5.72284 22.0059 5.53821 22.1536 5.35362 22.1536H2.39976C2.21513 22.1536 2.03054 21.9689 2.03054 21.7844V8.86127C2.03054 8.67664 2.17822 8.49205 2.36285 8.49205H5.35362C5.53825 8.49205 5.72284 8.67668 5.72284 8.86127V21.8213ZM17.9075 7.38432H17.1321C15.6921 7.38432 14.3259 8.01202 13.4398 9.00895V8.49201C13.4398 8.12279 13.0706 7.75353 12.7013 7.75353H9.00901C8.6767 7.75353 8.27053 8.04893 8.27053 8.45506V22.2273C8.27053 22.6335 8.6767 22.892 9.00901 22.892H13.0706C13.4029 22.892 13.809 22.6335 13.809 22.2273V14.252C13.809 13.0335 14.6952 12.0735 15.8398 12.0735C16.4305 12.0735 16.9844 12.295 17.3906 12.7012C17.7598 13.0335 17.9075 13.5504 17.9075 14.2151V22.1535C17.9075 22.5227 18.2767 22.892 18.646 22.892H22.3383C22.7075 22.892 23.0767 22.5228 23.0767 22.1535V12.6274C23.0767 9.67356 20.8244 7.38432 17.9075 7.38432ZM22.3382 22.1166L22.3013 22.1535H18.6828L18.6459 14.2151C18.6459 13.3289 18.4244 12.6643 17.9444 12.1843C17.3906 11.6305 16.6521 11.3351 15.8767 11.3351C14.3259 11.372 13.1075 12.6274 13.1075 14.252V22.1535H9.04591V8.49201H12.7013L12.7382 8.52892V10.8551L13.7351 9.85815L13.772 9.82124C14.5105 8.78741 15.8028 8.12279 17.169 8.12279H17.9444C20.4182 8.12279 22.3382 10.1166 22.3382 12.6274V22.1166Z" fill="white" stroke="white" stroke-width="0.4"/>
</g>
<defs>
<clipPath id="clip0_59_374">
<rect width="24" height="24" fill="white"/>
</clipPath>
</defs>
</svg>
