<svg width="24" height="24" viewBox="0 0 24 24" fill="none" xmlns="http://www.w3.org/2000/svg">
<path d="M9.10156 6.09668C9.46399 6.09668 9.71152 6.18311 9.9043 6.34863C10.0891 6.50734 10.2135 6.73227 10.3477 6.9707C10.4145 7.0894 10.4891 7.2228 10.5859 7.38379C10.6387 7.47117 10.7124 7.58278 10.792 7.7041C11.0426 8.08587 11.2543 8.4207 11.3799 8.71875C11.506 9.0179 11.5544 9.30065 11.4512 9.56836C11.3745 9.76573 11.2377 9.93922 11.082 10.0947C10.9263 10.2503 10.7436 10.3957 10.5713 10.5332C10.4618 10.6206 10.3261 10.7328 10.2402 10.8135C10.2841 10.9659 10.3959 11.1966 10.5879 11.4805C10.8054 11.802 11.115 12.1814 11.5098 12.5762C11.904 12.9704 12.2822 13.2797 12.6035 13.4971C12.8862 13.6884 13.1167 13.7993 13.2695 13.8438C13.3498 13.7581 13.4621 13.6242 13.5488 13.5156C13.6869 13.3427 13.8331 13.1601 13.9893 13.0039C14.1453 12.8479 14.3186 12.7101 14.5166 12.6338C14.6127 12.5967 14.7175 12.5781 14.8252 12.5781C15.0534 12.5782 15.291 12.6603 15.542 12.7861C15.794 12.9126 16.0727 13.0901 16.3818 13.293C16.503 13.3725 16.6142 13.4459 16.7021 13.499C16.8627 13.5956 16.9965 13.6705 17.1152 13.7373C17.3536 13.8714 17.5777 13.996 17.7363 14.1807C17.9019 14.3734 17.9883 14.6209 17.9883 14.9834C17.9883 15.2382 17.87 15.5275 17.71 15.7969C17.5478 16.0698 17.3333 16.3389 17.1201 16.5566C16.5016 17.1883 15.7755 17.5439 15.0723 17.5439C13.233 17.5439 11.1434 16.5239 9.33398 14.7646C9.32999 14.7615 9.32485 14.7584 9.32031 14.7539L9.31934 14.752C7.55837 12.9419 6.53343 10.8531 6.53223 9.0127L6.53613 8.88086C6.57788 8.21822 6.93207 7.5446 7.52441 6.96484C7.7423 6.75164 8.01197 6.53698 8.28613 6.375C8.55661 6.21521 8.84679 6.09678 9.10156 6.09668ZM9.12207 7.28418C9.09983 7.28887 9.06235 7.30169 9.00977 7.32715C8.95293 7.35469 8.88446 7.3938 8.80957 7.44336C8.65982 7.54247 8.48696 7.68093 8.32324 7.8457C7.99079 8.18033 7.71974 8.6013 7.71973 9.01367L7.73047 9.2959C7.83619 10.7278 8.72175 12.4357 10.166 13.9219H10.165C11.7494 15.4608 13.5862 16.364 15.0713 16.3652C15.4835 16.3647 15.9046 16.094 16.2393 15.7617C16.404 15.5981 16.5424 15.425 16.6416 15.2754C16.6911 15.2007 16.7302 15.1329 16.7578 15.0762C16.7827 15.0249 16.7947 14.9873 16.7998 14.9648C16.7996 14.9517 16.7983 14.9404 16.7979 14.9307C16.7787 14.9181 16.7547 14.9003 16.7236 14.8818C16.6662 14.8477 16.5978 14.8094 16.5322 14.7725C16.414 14.706 16.2658 14.6225 16.0898 14.5166H16.0889C15.9802 14.451 15.857 14.3698 15.7295 14.2861C15.6079 14.2063 15.4276 14.0875 15.252 13.9824C15.164 13.9298 15.0782 13.881 15.0029 13.8428C14.9579 13.8199 14.9189 13.802 14.8867 13.7891C14.8398 13.8315 14.7783 13.8944 14.7129 13.9697C14.6269 14.0689 14.5411 14.1773 14.4775 14.2568C14.3188 14.4557 14.1612 14.6533 13.9922 14.7998C13.8422 14.9298 13.6738 15.0279 13.4756 15.0508L13.3887 15.0557C13.125 15.0554 12.8456 14.9706 12.5752 14.8457C12.3037 14.7203 12.0327 14.5507 11.7832 14.3711C11.2843 14.0119 10.8601 13.6062 10.6699 13.416C10.4799 13.226 10.0741 12.8014 9.71484 12.3027C9.53516 12.0533 9.36468 11.782 9.23926 11.5107C9.11444 11.2407 9.03056 10.9623 9.03027 10.6992C9.03027 10.4612 9.13706 10.265 9.28613 10.0928C9.43311 9.92296 9.63139 9.76488 9.83105 9.60547C9.91032 9.54219 10.0174 9.45579 10.1162 9.37012C10.1909 9.30533 10.2524 9.244 10.2949 9.19727C10.282 9.16524 10.2648 9.12643 10.2422 9.08203C10.2039 9.00678 10.1551 8.92087 10.1025 8.83301C9.99748 8.65746 9.87953 8.47695 9.7998 8.35547C9.71609 8.22796 9.63455 8.10509 9.56934 7.99707C9.46284 7.8201 9.37905 7.67101 9.3125 7.55273C9.27559 7.48713 9.23723 7.41877 9.20312 7.36133C9.18438 7.32977 9.16689 7.30532 9.1543 7.28613C9.14506 7.28575 9.13439 7.28434 9.12207 7.28418Z" fill="white" stroke="white" stroke-width="0.25"/>
<path d="M11.8525 2.31543C14.4659 2.31543 16.9358 3.34593 18.8057 5.21582C20.6417 7.05191 21.6717 9.47676 21.7051 12.043C21.7385 14.6141 20.768 17.0093 18.9717 18.8057C17.208 20.5693 14.8462 21.5283 12.3242 21.5283C10.518 21.5283 8.75797 21.0397 7.21387 20.0928L3.24707 21.7822C3.17987 21.8108 3.09956 21.835 3.01465 21.835C2.91908 21.835 2.82497 21.8118 2.74023 21.7676C2.65537 21.7233 2.58205 21.6586 2.52734 21.5801C2.47277 21.5016 2.4379 21.4112 2.42578 21.3164C2.41366 21.2214 2.42479 21.1249 2.45801 21.0352L3.98242 16.9131C2.85902 15.1293 2.33334 13.0161 2.50098 10.9268C2.67956 8.70228 3.63994 6.61494 5.20508 5.0498C6.96862 3.28646 9.32989 2.31553 11.8525 2.31543ZM11.8525 3.50293C9.64567 3.50303 7.58381 4.35092 6.04492 5.88965C3.25259 8.68194 2.86672 13.1476 5.13477 16.5078C5.18748 16.5859 5.22117 16.676 5.23242 16.7695C5.24361 16.863 5.23186 16.9576 5.19922 17.0459L4.04785 20.1572L7.03711 18.8906C7.12709 18.8524 7.22492 18.8369 7.32227 18.8457C7.4197 18.8546 7.51401 18.8876 7.5957 18.9414C9.00854 19.8719 10.6432 20.3631 12.3232 20.3633C14.5301 20.3633 16.5929 19.5155 18.1318 17.9766C19.6994 16.4089 20.5468 14.3079 20.5176 12.0586C20.4883 9.80428 19.5827 7.67247 17.9658 6.05566C16.3192 4.40901 14.1481 3.50293 11.8525 3.50293Z" fill="white" stroke="white" stroke-width="0.25"/>
</svg>
